# xmcd
#
# Track frame offsets: 
#        150
#        20132
#        33349
#        50511
#        77708
#        99018
#        114260
#        135277
#        164252
#        188764
#        193184
#        216181
#
# Disc length: 3066 seconds
#
# Revision: 0
# Processed by: cddbd v1.5.2PL0 Copyright (c) Steve Scherf et al.
# Submitted via: ExactAudioCopy v1.0b1
#
DISCID=960bf80c
DTITLE=Natalia M. King - Soulblazz
DYEAR=2014
DGENRE=Vocal Jazz, Blues, Soul
TTITLE0=You Don't Know What Love Is
TTITLE1=I've Changed
TTITLE2=Ring Ring Dingaling
TTITLE3=Stronger Than I
TTITLE4=Lady Of The Night
TTITLE5=Today I Sing The Blues
TTITLE6=Nutty Revisited
TTITLE7=I Need To See You Again
TTITLE8=Love And Leave Me Kind
TTITLE9=Amazing Grace
TTITLE10=Who Knows Best (Bonus Track)
TTITLE11=Miss Celie's Blues (Sister) (Bonus Track)
EXTD=
EXTT0=
EXTT1=
EXTT2=
EXTT3=
EXTT4=
EXTT5=
EXTT6=
EXTT7=
EXTT8=
EXTT9=
EXTT10=
EXTT11=
PLAYORDER=
